<svg width="650" height="265" xmlns="http://www.w3.org/2000/svg"><g transform="translate(0 3)" fill="none" fill-rule="evenodd"><path d="M126.008 38.765a7.28 7.28 0 017.29-7.283h253.574a7.285 7.285 0 017.29 7.283v173.542a7.28 7.28 0 01-7.29 7.284H133.298a7.285 7.285 0 01-7.29-7.284V38.765z" stroke="#7510F7" stroke-width="2.081" fill="#FFF"/><path d="M142.41 50.737a3.128 3.128 0 013.126-3.124h228.838a3.12 3.12 0 013.126 3.124v129.305a3.128 3.128 0 01-3.126 3.124H145.536a3.12 3.12 0 01-3.126-3.124V50.737zM240.99 219.59h38.451l2.596 33.564h-43.643l2.596-33.563zM222.334 260.442v-3.515c0-2.08 1.69-3.773 3.77-3.773h68.222a3.777 3.777 0 013.77 3.773v3.515a.255.255 0 01-.261.257h-75.239a.259.259 0 01-.262-.257z" stroke="#7510F7" stroke-width="2.081" fill="#FFF"/><ellipse stroke="#7510F7" stroke-width="2.081" cx="260.215" cy="202.809" rx="4.816" ry="4.813"/><rect stroke="#7510F7" stroke-width="2.081" fill="#FFF" x="101.275" y="159.75" width="51.547" height="100.949" rx="6.244"/><path d="M101.275 170.937h51.547v74.75h-51.547v-74.75z" stroke="#7510F7" stroke-width="2.081" fill="#FFF"/><rect fill="#7510F7" x="114.812" y="164.173" width="24.733" height="2.081" rx="1.041"/><rect fill="#7510F7" x="124.185" y="250.032" width="5.936" height="5.932" rx="2.966"/><ellipse stroke="#7510F7" stroke-width="2.081" fill="#FFF" cx="115.854" cy="208.143" rx="3.905" ry="3.903"/><rect fill="#7510F7" x="124.966" y="201.378" width="18.224" height="2.081" rx="1.041"/><rect fill="#7510F7" x="124.966" y="207.102" width="13.017" height="2.081" rx="1.041"/><rect fill="#7510F7" x="124.966" y="212.826" width="7.81" height="2.081" rx="1.041"/><ellipse stroke="#7510F7" stroke-width="2.081" fill="#FFF" cx="74.849" cy="168.726" rx="39.964" ry="39.937"/><rect stroke="#7510F7" stroke-width="2.081" fill="#FFF" x="319.705" y="120.463" width="192.654" height="129.309" rx="6.244"/><path d="M306.426 250.026v5.21a5.468 5.468 0 005.462 5.463h208.288a5.468 5.468 0 005.462-5.464v-5.21a.254.254 0 00-.259-.253H306.685a.254.254 0 00-.259.254z" stroke="#7510F7" stroke-width="2.081" fill="#FFF"/><path d="M430.429 249.889H401.27a8.066 8.066 0 007.538 5.203h14.083a8.065 8.065 0 007.538-5.203z" stroke="#7510F7" stroke-width="2.081" fill="#FFF"/><rect stroke="#7510F7" stroke-width="2.081" fill="#FFF" x="328.295" y="132.691" width="175.32" height="105.073" rx="2.081"/><ellipse fill="#293347" cx="254.358" cy="49.954" rx="1.302" ry="1.301"/><path d="M179.9 11.968h120.278v115.26c0 4.021-3.27 7.284-7.292 7.284H187.191c-4.025 0-7.292-3.264-7.292-7.284V11.968z" stroke="#7510F7" stroke-width="2.081" fill="#FFF"/><path d="M179.9 6.238c0-4.018 3.269-7.279 7.29-7.279h105.696c4.027 0 7.292 3.257 7.292 7.279v7.812H179.899V6.238z" stroke="#7510F7" stroke-width="2.081" fill="#FFF"/><ellipse fill="#7510F7" cx="191.094" cy="6.504" rx="2.343" ry="2.342"/><ellipse fill="#7510F7" cx="198.904" cy="6.504" rx="2.343" ry="2.342"/><ellipse fill="#7510F7" cx="206.714" cy="6.504" rx="2.343" ry="2.342"/><rect fill="#7510F7" x="194.478" y="87.94" width="4.686" height="2.081" rx="1.041"/><rect fill="#7510F7" x="194.478" y="35.905" width="4.686" height="2.081" rx="1.041"/><path d="M203.33 35.905h7.03a1.04 1.04 0 110 2.081h-7.03a1.04 1.04 0 010-2.081zM215.045 35.905h7.03a1.04 1.04 0 010 2.081h-7.03a1.04 1.04 0 010-2.081zM226.76 35.905h13.019a1.04 1.04 0 010 2.081H226.76a1.04 1.04 0 010-2.081zM244.464 35.905h19.267a1.04 1.04 0 010 2.081h-19.267a1.04 1.04 0 010-2.081z" fill="#7510F7"/><rect fill="#7510F7" x="194.478" y="46.312" width="4.686" height="2.081" rx="1.041"/><rect fill="#7510F7" x="194.478" y="56.719" width="4.686" height="2.081" rx="1.041"/><rect fill="#7510F7" x="194.478" y="67.126" width="4.686" height="2.081" rx="1.041"/><rect fill="#7510F7" x="194.478" y="77.533" width="4.686" height="2.081" rx="1.041"/><rect fill="#7510F7" x="194.478" y="98.348" width="4.686" height="2.081" rx="1.041"/><rect fill="#7510F7" x="194.478" y="108.755" width="4.686" height="2.081" rx="1.041"/><rect fill="#7510F7" x="202.288" y="46.312" width="18.224" height="2.081" rx="1.041"/><rect fill="#7510F7" x="223.116" y="46.312" width="31.241" height="2.081" rx="1.041"/><rect fill="#7510F7" x="256.961" y="46.312" width="13.017" height="2.081" rx="1.041"/><rect fill="#7510F7" x="202.288" y="56.719" width="13.017" height="2.081" rx="1.041"/><rect fill="#7510F7" x="217.909" y="56.719" width="13.017" height="2.081" rx="1.041"/><rect fill="#7510F7" x="233.53" y="56.719" width="7.81" height="2.081" rx="1.041"/><rect fill="#7510F7" x="202.288" y="67.126" width="26.035" height="2.081" rx="1.041"/><rect fill="#7510F7" x="230.926" y="67.126" width="18.224" height="2.081" rx="1.041"/><rect fill="#7510F7" x="202.288" y="77.533" width="26.035" height="2.081" rx="1.041"/><rect fill="#7510F7" x="230.926" y="77.533" width="33.845" height="2.081" rx="1.041"/><rect fill="#7510F7" x="202.288" y="87.94" width="18.224" height="2.081" rx="1.041"/><rect fill="#7510F7" x="223.116" y="87.94" width="18.224" height="2.081" rx="1.041"/><rect fill="#7510F7" x="243.944" y="87.94" width="10.414" height="2.081" rx="1.041"/><rect fill="#7510F7" x="202.288" y="98.348" width="33.845" height="2.081" rx="1.041"/><rect fill="#7510F7" x="202.288" y="108.755" width="15.621" height="2.081" rx="1.041"/><path d="M414.991 93.664H557.66v101.479c0 4.02-3.26 7.276-7.285 7.276H422.277c-4.021 0-7.286-3.262-7.286-7.276V93.664z" stroke="#7510F7" stroke-width="2.081" fill="#FFF"/><path d="M414.991 87.934a7.28 7.28 0 017.286-7.279h128.097a7.28 7.28 0 017.285 7.279v7.812H414.991v-7.812z" stroke="#7510F7" stroke-width="2.081" fill="#FFF"/><ellipse fill="#7510F7" cx="426.186" cy="88.201" rx="2.343" ry="2.342"/><ellipse fill="#7510F7" cx="433.996" cy="88.201" rx="2.343" ry="2.342"/><ellipse fill="#7510F7" cx="441.806" cy="88.201" rx="2.343" ry="2.342"/><ellipse stroke="#7510F7" stroke-width="2.342" fill="#FFF" cx="503.248" cy="148.042" rx="26.035" ry="26.018"/><path d="M500.383 118.902v6.244h6.25v-6.244h-6.25zM500.123 170.937v6.245h6.25v-6.245h-6.25zM474.089 145.18v6.244h6.25v-6.244h-6.25zM525.897 145.18v6.244h6.25v-6.244h-6.25z" stroke="#7510F7" stroke-width="2.081" fill="#FFF"/><path stroke="#7510F7" stroke-width="2.081" stroke-linecap="square" d="M529.282 124.626v19.513M529.282 151.944v19.514"/><ellipse fill="#7510F7" cx="529.282" cy="123.845" rx="3.124" ry="3.122"/><ellipse fill="#7510F7" cx="529.282" cy="173.279" rx="3.124" ry="3.122"/><g transform="translate(439.463 115.52)" fill="#FFF" stroke="#7510F7" stroke-width="2.081"><rect x="1.041" y="1.041" width="16.143" height="16.131" rx="3.122"/><rect x="1.041" y="24.457" width="16.143" height="16.131" rx="3.122"/><rect x="1.041" y="47.873" width="16.143" height="16.131" rx="3.122"/></g><ellipse stroke="#7510F7" stroke-width="2.081" fill="#FFF" cx="632.379" cy="235.982" rx="15.621" ry="15.611"/><ellipse stroke="#7510F7" stroke-width="2.081" fill="#FFF" cx="632.379" cy="235.982" rx="9.112" ry="9.106"/><ellipse stroke="#7510F7" stroke-width="2.081" fill="#FFF" cx="611.552" cy="212.306" rx="5.207" ry="5.204"/><path d="M588.64 211.005a1.04 1.04 0 00-1.04 1.04v43.71a5.204 5.204 0 005.203 5.204h35.917a5.204 5.204 0 005.204-5.203v-43.71a1.04 1.04 0 00-1.041-1.041H588.64z" stroke="#7510F7" stroke-width="2.081" fill="#FFF"/><rect stroke="#7510F7" stroke-width="2.081" fill="#FFF" x="609.729" y="225.055" width="13.539" height="16.651" rx="3.122"/><path stroke="#7510F7" stroke-width="2.081" stroke-linecap="square" d="M616.368 211.395v11.838"/><path d="M557.92 260.7h15.621c0-8.622-6.993-15.612-15.62-15.612-8.628 0-15.621 6.99-15.621 15.611h15.62z" stroke="#7510F7" stroke-width="2.081" fill="#FFF"/><rect fill="#7510F7" x="556.879" y="244.568" width="2.083" height="3.382" rx="1.041"/><path d="M16.391 229.998c-8.478 0-15.35 6.873-15.35 15.35 0 8.479 6.872 15.351 15.35 15.351h63.016c.862 0 1.561-.699 1.561-1.56v-2.417a2.081 2.081 0 00-1.934-2.076c-7.154-.508-10.953-3.65-10.953-9.297s3.8-8.79 10.953-9.298a2.081 2.081 0 001.934-2.076v-2.416c0-.862-.699-1.561-1.56-1.561H16.39z" stroke="#7510F7" stroke-width="2.081" fill="#FFF"/><path d="M80.186 255.3a.456.456 0 01-.456.456h0H16.141c-5.751 0-10.413-4.66-10.413-10.407 0-5.748 4.662-10.408 10.413-10.408H79.73c.252 0 .456.205.456.456" stroke="#7510F7" stroke-width="2.081"/><rect fill="#7510F7" x="14.059" y="240.926" width="54.673" height="2.081" rx="1.041"/><rect fill="#7510F7" x="14.059" y="247.43" width="54.673" height="2.081" rx="1.041"/><path d="M65.127 178.055l-3.833-3.405c-2.037-1.807-4.067-3.62-6.103-5.427-.467-.411-.933-.828-1.394-1.24v1.64l3.833-3.406c2.036-1.807 4.066-3.62 6.102-5.427.467-.411.934-.828 1.395-1.24.455-.405.449-1.233 0-1.638-.485-.446-1.161-.435-1.652 0l-3.833 3.405c-2.036 1.807-4.066 3.62-6.102 5.427-.467.411-.933.828-1.394 1.24-.45.399-.45 1.239 0 1.638l3.833 3.406c2.036 1.807 4.066 3.62 6.102 5.427.467.41.934.828 1.394 1.24.456.405 1.208.48 1.652 0 .408-.441.484-1.206 0-1.64zM84.583 159.554l3.833 3.405c2.036 1.807 4.066 3.62 6.102 5.427.467.411.934.828 1.394 1.24v-1.64l-3.833 3.406c-2.036 1.807-4.066 3.62-6.102 5.426-.467.412-.934.829-1.394 1.24-.455.405-.45 1.233 0 1.639.484.446 1.16.434 1.65 0l3.834-3.406c2.036-1.807 4.066-3.62 6.102-5.426.467-.412.934-.829 1.394-1.24.45-.4.45-1.24 0-1.639l-3.833-3.405c-2.036-1.807-4.066-3.62-6.102-5.427-.467-.411-.933-.828-1.394-1.24-.455-.405-1.208-.48-1.651 0-.409.44-.485 1.205 0 1.64zM70.694 184.876c.35-1.043.694-2.085 1.044-3.134l2.503-7.517c1.003-3.023 2.007-6.04 3.016-9.064l2.608-7.836c.414-1.269.88-2.531 1.266-3.817l.017-.052c.193-.573-.221-1.292-.816-1.425a1.193 1.193 0 00-1.436.811c-.35 1.043-.694 2.085-1.044 3.133l-2.503 7.518a55363147.56 55363147.56 0 01-5.624 16.9c-.414 1.263-.88 2.525-1.266 3.81l-.017.053c-.193.573.221 1.292.817 1.425a1.195 1.195 0 001.435-.805z" fill="#7510F7" fill-rule="nonzero"/></g></svg>